<svg id="Component_1_1" data-name="Component 1 – 1" xmlns="http://www.w3.org/2000/svg" width="142" height="142" viewBox="0 0 142 142">
  <g id="Ellipse_41" data-name="Ellipse 41" fill="none" stroke="#fff" stroke-width="5">
    <circle cx="71" cy="71" r="71" stroke="none"/>
    <circle cx="71" cy="71" r="68.5" fill="none"/>
  </g>
  <path id="share" d="M56.858,52.757a10.433,10.433,0,0,0-7.037,2.776l-25.6-14.96a11.846,11.846,0,0,0,.323-2.523,11.846,11.846,0,0,0-.323-2.523L49.533,20.71a10.736,10.736,0,0,0,18.1-7.895,10.772,10.772,0,1,0-21.543,0,11.846,11.846,0,0,0,.323,2.523L21.1,30.154a10.815,10.815,0,1,0,0,15.79l25.564,15a10.209,10.209,0,0,0-.287,2.343A10.484,10.484,0,1,0,56.858,52.757Z" transform="translate(35.347 34)" fill="#fff" fill-rule="evenodd"/>
</svg>
